<svg xmlns="http://www.w3.org/2000/svg" viewBox="0 0 520 140" role="img" aria-labelledby="title desc"><title id="title">Go-Ahead London</title><desc id="desc">Go-Ahead London operator wordmark</desc><rect width="520" height="140" rx="20" fill="#ffffff"/><path d="M45 70c0-25 20-45 45-45h58v28H92c-10 0-18 8-18 18s8 18 18 18h30V71h28v46H90c-25 0-45-21-45-47Z" fill="#d71920"/><path d="M174 25h28v34h38V25h28v92h-28V85h-38v32h-28V25Zm117 0h28v92h-28V25Zm52 0h28l41 53V25h28v92h-27l-42-54v54h-28V25Z" fill="#172a54"/><text x="174" y="133" font-family="Arial, Helvetica, sans-serif" font-size="20" font-weight="700" letter-spacing="2" fill="#d71920">LONDON</text></svg>